<svg width="1023" height="802" viewBox="0 0 1023 802" fill="none" xmlns="http://www.w3.org/2000/svg">
<path d="M73 211.5L944 211.5" stroke="black" stroke-width="2" stroke-linecap="round"/>
<path d="M28 291.5L998 291.5" stroke="black" stroke-width="2" stroke-linecap="round"/>
<path d="M1 371L1022 371" stroke="black" stroke-width="2" stroke-linecap="round"/>
<path d="M4 451L1019 451" stroke="black" stroke-width="2" stroke-linecap="round"/>
<path d="M35 531L992 531" stroke="black" stroke-width="2" stroke-linecap="round"/>
<line x1="153" y1="611" x2="873" y2="611" stroke="black" stroke-width="2"/>
<path d="M231 131L793 131" stroke="black" stroke-width="2"/>
<line x1="233" y1="691" x2="793" y2="691" stroke="black" stroke-width="2"/>
<line x1="232" y1="692" x2="232" y2="132" stroke="black" stroke-width="2"/>
<path d="M392 755L392 55" stroke="black" stroke-width="2" stroke-linecap="round"/>
<path d="M552 801L552 1" stroke="black" stroke-width="2" stroke-linecap="round"/>
<path d="M712.5 692L712.5 74" stroke="black" stroke-width="2" stroke-linecap="round"/>
<line x1="872" y1="612" x2="872" y2="212" stroke="black" stroke-width="2"/>
<line x1="152" y1="612" x2="152" y2="212" stroke="black" stroke-width="2"/>
<path d="M312 692L312 74" stroke="black" stroke-width="2" stroke-linecap="round"/>
<path d="M472 801L472 1" stroke="black" stroke-width="2" stroke-linecap="round"/>
<path d="M632 755L632 55" stroke="black" stroke-width="2" stroke-linecap="round"/>
<line x1="792" y1="692" x2="792" y2="132" stroke="black" stroke-width="2"/>
</svg>
